<svg aria-hidden="true" style="position: absolute; width: 0; height: 0; overflow: hidden;" version="1.1" xmlns="http://www.w3.org/2000/svg" xmlns:xlink="http://www.w3.org/1999/xlink">
<defs>
<symbol id="icon-menu" viewBox="0 0 45 32">
<path  d="M42.409 5.505h-38.933c-1.396 0-2.527-1.141-2.527-2.549s1.132-2.549 2.527-2.549h38.933c1.396 0 2.527 1.141 2.527 2.549s-1.132 2.549-2.527 2.549z"></path>
<path d="M10.416 13.898c4.001 0 7.257 3.284 7.257 7.32s-3.255 7.321-7.257 7.321c-4.002 0-7.257-3.284-7.257-7.32s3.256-7.321 7.257-7.321zM10.416 10.711c-5.753 0-10.416 4.705-10.416 10.508s4.664 10.507 10.416 10.507c5.753 0 10.416-4.704 10.416-10.507s-4.664-10.508-10.416-10.508z"></path>
<path  d="M33.99 13.898c4.001 0 7.257 3.284 7.257 7.32s-3.255 7.321-7.257 7.321-7.257-3.284-7.257-7.32c0-4.036 3.256-7.321 7.257-7.321zM33.99 10.711c-5.753 0-10.416 4.704-10.416 10.507s4.664 10.507 10.416 10.507 10.416-4.704 10.416-10.507c0-5.803-4.664-10.507-10.416-10.507z"></path>
<path d="M10.416 23.055c1.005 0 1.82-0.822 1.82-1.836s-0.815-1.836-1.82-1.836c-1.005 0-1.82 0.822-1.82 1.836s0.815 1.836 1.82 1.836z"></path>
<path d="M33.991 23.055c1.005 0 1.82-0.822 1.82-1.836s-0.815-1.836-1.82-1.836c-1.005 0-1.82 0.822-1.82 1.836s0.815 1.836 1.82 1.836z"></path>
</symbol>
<symbol id="icon-close" viewBox="0 0 20 20">
<path d="M10 8.586l-7.071-7.071-1.414 1.414 7.071 7.071-7.071 7.071 1.414 1.414 7.071-7.071 7.071 7.071 1.414-1.414-7.071-7.071 7.071-7.071-1.414-1.414-7.071 7.071z"></path>
</symbol>
<symbol id="icon-github" viewBox="0 0 32 32">
<path d="M16 0.395c-8.836 0-16 7.163-16 16 0 7.069 4.585 13.067 10.942 15.182 0.8 0.148 1.094-0.347 1.094-0.77 0-0.381-0.015-1.642-0.022-2.979-4.452 0.968-5.391-1.888-5.391-1.888-0.728-1.849-1.776-2.341-1.776-2.341-1.452-0.993 0.11-0.973 0.11-0.973 1.606 0.113 2.452 1.649 2.452 1.649 1.427 2.446 3.743 1.739 4.656 1.33 0.143-1.034 0.558-1.74 1.016-2.14-3.554-0.404-7.29-1.777-7.29-7.907 0-1.747 0.625-3.174 1.649-4.295-0.166-0.403-0.714-2.030 0.155-4.234 0 0 1.344-0.43 4.401 1.64 1.276-0.355 2.645-0.532 4.005-0.539 1.359 0.006 2.729 0.184 4.008 0.539 3.054-2.070 4.395-1.64 4.395-1.64 0.871 2.204 0.323 3.831 0.157 4.234 1.026 1.12 1.647 2.548 1.647 4.295 0 6.145-3.743 7.498-7.306 7.895 0.574 0.497 1.085 1.47 1.085 2.963 0 2.141-0.019 3.864-0.019 4.391 0 0.426 0.288 0.925 1.099 0.768 6.354-2.118 10.933-8.113 10.933-15.18 0-8.837-7.164-16-16-16z"></path>
</symbol>
</defs>
</svg>
